<mxfile host="65bd71144e">
    <diagram id="hxa_sSl99MM0FHEDy-J5" name="CoW-before">
        <mxGraphModel dx="812" dy="724" grid="1" gridSize="10" guides="1" tooltips="1" connect="1" arrows="1" fold="1" page="1" pageScale="1" pageWidth="827" pageHeight="1169" math="0" shadow="0">
            <root>
                <mxCell id="A_WuFeDLpOZQbWgR5UdR-0"/>
                <mxCell id="A_WuFeDLpOZQbWgR5UdR-1" parent="A_WuFeDLpOZQbWgR5UdR-0"/>
                <mxCell id="P4RkxOShtMUyrI7WZrWY-0" value="&lt;font style=&quot;font-size: 16px&quot;&gt;reference_count = 1&lt;/font&gt;" style="rounded=0;whiteSpace=wrap;html=1;strokeColor=default;strokeWidth=3;" vertex="1" parent="A_WuFeDLpOZQbWgR5UdR-1">
                    <mxGeometry x="400" y="80" width="160" height="40" as="geometry"/>
                </mxCell>
                <mxCell id="P4RkxOShtMUyrI7WZrWY-1" value="" style="group;strokeColor=none;fillColor=none;strokeWidth=3;" vertex="1" connectable="0" parent="A_WuFeDLpOZQbWgR5UdR-1">
                    <mxGeometry x="30" y="50" width="230" height="100" as="geometry"/>
                </mxCell>
                <mxCell id="P4RkxOShtMUyrI7WZrWY-2" value="" style="group;strokeColor=#0000CC;strokeWidth=3;" vertex="1" connectable="0" parent="P4RkxOShtMUyrI7WZrWY-1">
                    <mxGeometry x="70" width="160" height="100" as="geometry"/>
                </mxCell>
                <mxCell id="P4RkxOShtMUyrI7WZrWY-3" value="" style="rounded=0;whiteSpace=wrap;html=1;strokeColor=#0000CC;strokeWidth=3;" vertex="1" parent="P4RkxOShtMUyrI7WZrWY-2">
                    <mxGeometry width="160" height="100" as="geometry"/>
                </mxCell>
                <mxCell id="P4RkxOShtMUyrI7WZrWY-4" value="&lt;font style=&quot;font-size: 18px&quot; color=&quot;#000099&quot;&gt;VPN&lt;/font&gt;" style="rounded=0;whiteSpace=wrap;html=1;strokeColor=#0000CC;strokeWidth=3;" vertex="1" parent="P4RkxOShtMUyrI7WZrWY-2">
                    <mxGeometry y="20" width="160" height="30" as="geometry"/>
                </mxCell>
                <mxCell id="P4RkxOShtMUyrI7WZrWY-5" value="&lt;font color=&quot;#000099&quot;&gt;PCB1&lt;/font&gt;" style="text;html=1;align=center;verticalAlign=middle;resizable=0;points=[];autosize=1;strokeColor=none;fillColor=none;fontSize=16;strokeWidth=3;" vertex="1" parent="P4RkxOShtMUyrI7WZrWY-1">
                    <mxGeometry y="40" width="60" height="20" as="geometry"/>
                </mxCell>
                <mxCell id="P4RkxOShtMUyrI7WZrWY-6" value="" style="endArrow=classic;html=1;fontSize=16;exitX=1;exitY=1;exitDx=0;exitDy=0;entryX=0;entryY=0.5;entryDx=0;entryDy=0;strokeWidth=3;" edge="1" parent="A_WuFeDLpOZQbWgR5UdR-1" source="P4RkxOShtMUyrI7WZrWY-4" target="P4RkxOShtMUyrI7WZrWY-0">
                    <mxGeometry width="50" height="50" relative="1" as="geometry">
                        <mxPoint x="310" y="210" as="sourcePoint"/>
                        <mxPoint x="360" y="160" as="targetPoint"/>
                    </mxGeometry>
                </mxCell>
                <mxCell id="P4RkxOShtMUyrI7WZrWY-7" value="Frame1" style="text;html=1;align=center;verticalAlign=middle;resizable=0;points=[];autosize=1;strokeColor=none;fillColor=none;fontSize=16;strokeWidth=3;" vertex="1" parent="A_WuFeDLpOZQbWgR5UdR-1">
                    <mxGeometry x="570" y="90" width="70" height="20" as="geometry"/>
                </mxCell>
            </root>
        </mxGraphModel>
    </diagram>
    <diagram id="Rp2z2O1JbophbPsTWGs4" name="CoW-fork">
        <mxGraphModel dx="690" dy="615" grid="1" gridSize="10" guides="1" tooltips="1" connect="1" arrows="1" fold="1" page="1" pageScale="1" pageWidth="827" pageHeight="1169" math="0" shadow="0">
            <root>
                <mxCell id="88V2DEHkRObjw6I2kqsk-0"/>
                <mxCell id="88V2DEHkRObjw6I2kqsk-1" parent="88V2DEHkRObjw6I2kqsk-0"/>
                <mxCell id="Ans5W_2tBRrNHOHg6P27-0" value="" style="group;strokeColor=none;fillColor=none;strokeWidth=3;" vertex="1" connectable="0" parent="88V2DEHkRObjw6I2kqsk-1">
                    <mxGeometry x="30" y="210" width="230" height="100" as="geometry"/>
                </mxCell>
                <mxCell id="Ans5W_2tBRrNHOHg6P27-1" value="" style="group;strokeColor=#000099;strokeWidth=3;" vertex="1" connectable="0" parent="Ans5W_2tBRrNHOHg6P27-0">
                    <mxGeometry x="70" width="160" height="100" as="geometry"/>
                </mxCell>
                <mxCell id="Ans5W_2tBRrNHOHg6P27-2" value="" style="rounded=0;whiteSpace=wrap;html=1;strokeColor=#000099;strokeWidth=3;" vertex="1" parent="Ans5W_2tBRrNHOHg6P27-1">
                    <mxGeometry width="160" height="100" as="geometry"/>
                </mxCell>
                <mxCell id="Ans5W_2tBRrNHOHg6P27-3" value="&lt;font style=&quot;font-size: 18px&quot; color=&quot;#000099&quot;&gt;VPN&lt;/font&gt;" style="rounded=0;whiteSpace=wrap;html=1;strokeColor=#000099;strokeWidth=3;" vertex="1" parent="Ans5W_2tBRrNHOHg6P27-1">
                    <mxGeometry y="20" width="160" height="30" as="geometry"/>
                </mxCell>
                <mxCell id="Ans5W_2tBRrNHOHg6P27-4" value="&lt;font color=&quot;#000099&quot;&gt;PCB1&lt;/font&gt;" style="text;html=1;align=center;verticalAlign=middle;resizable=0;points=[];autosize=1;strokeColor=none;fillColor=none;fontSize=16;strokeWidth=3;" vertex="1" parent="Ans5W_2tBRrNHOHg6P27-0">
                    <mxGeometry y="40" width="60" height="20" as="geometry"/>
                </mxCell>
                <mxCell id="Ans5W_2tBRrNHOHg6P27-5" value="" style="group;strokeWidth=3;" vertex="1" connectable="0" parent="88V2DEHkRObjw6I2kqsk-1">
                    <mxGeometry x="30" y="340" width="230" height="100" as="geometry"/>
                </mxCell>
                <mxCell id="Ans5W_2tBRrNHOHg6P27-6" value="" style="rounded=0;whiteSpace=wrap;html=1;strokeColor=#006633;strokeWidth=3;" vertex="1" parent="Ans5W_2tBRrNHOHg6P27-5">
                    <mxGeometry x="70" width="160" height="100" as="geometry"/>
                </mxCell>
                <mxCell id="Ans5W_2tBRrNHOHg6P27-7" value="&lt;font color=&quot;#006633&quot;&gt;PCB2&lt;/font&gt;" style="text;html=1;align=center;verticalAlign=middle;resizable=0;points=[];autosize=1;strokeColor=none;fillColor=none;fontSize=16;strokeWidth=3;" vertex="1" parent="Ans5W_2tBRrNHOHg6P27-5">
                    <mxGeometry y="40" width="60" height="20" as="geometry"/>
                </mxCell>
                <mxCell id="Ans5W_2tBRrNHOHg6P27-8" value="&lt;font style=&quot;font-size: 18px&quot; color=&quot;#006633&quot;&gt;VPN&lt;/font&gt;" style="rounded=0;whiteSpace=wrap;html=1;strokeColor=#006633;strokeWidth=3;" vertex="1" parent="Ans5W_2tBRrNHOHg6P27-5">
                    <mxGeometry x="70" y="20" width="160" height="30" as="geometry"/>
                </mxCell>
                <mxCell id="Ans5W_2tBRrNHOHg6P27-9" value="&lt;font style=&quot;font-size: 16px&quot;&gt;reference_count = 2&lt;/font&gt;" style="rounded=0;whiteSpace=wrap;html=1;strokeColor=#000099;strokeWidth=3;" vertex="1" parent="88V2DEHkRObjw6I2kqsk-1">
                    <mxGeometry x="400" y="300" width="160" height="40" as="geometry"/>
                </mxCell>
                <mxCell id="Ans5W_2tBRrNHOHg6P27-10" value="" style="endArrow=classic;html=1;fontSize=16;exitX=1;exitY=1;exitDx=0;exitDy=0;entryX=0;entryY=0.5;entryDx=0;entryDy=0;strokeWidth=3;" edge="1" parent="88V2DEHkRObjw6I2kqsk-1" source="Ans5W_2tBRrNHOHg6P27-3" target="Ans5W_2tBRrNHOHg6P27-9">
                    <mxGeometry width="50" height="50" relative="1" as="geometry">
                        <mxPoint x="270" y="110" as="sourcePoint"/>
                        <mxPoint x="410" y="110" as="targetPoint"/>
                    </mxGeometry>
                </mxCell>
                <mxCell id="Ans5W_2tBRrNHOHg6P27-11" value="" style="endArrow=classic;html=1;fontSize=16;exitX=1;exitY=0.5;exitDx=0;exitDy=0;entryX=0;entryY=0.75;entryDx=0;entryDy=0;strokeWidth=3;" edge="1" parent="88V2DEHkRObjw6I2kqsk-1" source="Ans5W_2tBRrNHOHg6P27-6" target="Ans5W_2tBRrNHOHg6P27-9">
                    <mxGeometry width="50" height="50" relative="1" as="geometry">
                        <mxPoint x="270" y="270" as="sourcePoint"/>
                        <mxPoint x="410" y="330" as="targetPoint"/>
                    </mxGeometry>
                </mxCell>
                <mxCell id="Ans5W_2tBRrNHOHg6P27-12" value="Frame1" style="text;html=1;align=center;verticalAlign=middle;resizable=0;points=[];autosize=1;strokeColor=none;fillColor=none;fontSize=16;strokeWidth=3;" vertex="1" parent="88V2DEHkRObjw6I2kqsk-1">
                    <mxGeometry x="570" y="310" width="70" height="20" as="geometry"/>
                </mxCell>
                <mxCell id="Ans5W_2tBRrNHOHg6P27-13" value="&lt;font style=&quot;font-size: 16px&quot;&gt;reference_count = 2&lt;/font&gt;" style="rounded=0;whiteSpace=wrap;html=1;strokeColor=default;strokeWidth=3;" vertex="1" parent="88V2DEHkRObjw6I2kqsk-1">
                    <mxGeometry x="400" y="300" width="160" height="40" as="geometry"/>
                </mxCell>
            </root>
        </mxGraphModel>
    </diagram>
    <diagram id="5GdvO4pKYFo9QjEEiqIv" name="CoW-after">
        <mxGraphModel dx="1150" dy="1025" grid="1" gridSize="10" guides="1" tooltips="1" connect="1" arrows="1" fold="1" page="1" pageScale="1" pageWidth="827" pageHeight="1169" math="0" shadow="0">
            <root>
                <mxCell id="iI6DlpHm0xtAlpqIoiOo-0"/>
                <mxCell id="iI6DlpHm0xtAlpqIoiOo-1" parent="iI6DlpHm0xtAlpqIoiOo-0"/>
                <mxCell id="DgFqAxAnET6mvtvOUMZE-60" value="" style="group;strokeColor=none;fillColor=none;strokeWidth=3;" vertex="1" connectable="0" parent="iI6DlpHm0xtAlpqIoiOo-1">
                    <mxGeometry x="30" y="500" width="230" height="100" as="geometry"/>
                </mxCell>
                <mxCell id="DgFqAxAnET6mvtvOUMZE-61" value="" style="group;strokeColor=#000099;strokeWidth=3;" vertex="1" connectable="0" parent="DgFqAxAnET6mvtvOUMZE-60">
                    <mxGeometry x="70" width="160" height="100" as="geometry"/>
                </mxCell>
                <mxCell id="DgFqAxAnET6mvtvOUMZE-62" value="" style="rounded=0;whiteSpace=wrap;html=1;strokeColor=#000099;strokeWidth=3;" vertex="1" parent="DgFqAxAnET6mvtvOUMZE-61">
                    <mxGeometry width="160" height="100" as="geometry"/>
                </mxCell>
                <mxCell id="DgFqAxAnET6mvtvOUMZE-63" value="&lt;font style=&quot;font-size: 18px&quot; color=&quot;#000099&quot;&gt;VPN&lt;/font&gt;" style="rounded=0;whiteSpace=wrap;html=1;strokeColor=#000099;strokeWidth=3;" vertex="1" parent="DgFqAxAnET6mvtvOUMZE-61">
                    <mxGeometry y="20" width="160" height="30" as="geometry"/>
                </mxCell>
                <mxCell id="DgFqAxAnET6mvtvOUMZE-64" value="&lt;font color=&quot;#000099&quot;&gt;PCB1&lt;/font&gt;" style="text;html=1;align=center;verticalAlign=middle;resizable=0;points=[];autosize=1;strokeColor=none;fillColor=none;fontSize=16;strokeWidth=3;" vertex="1" parent="DgFqAxAnET6mvtvOUMZE-60">
                    <mxGeometry y="40" width="60" height="20" as="geometry"/>
                </mxCell>
                <mxCell id="DgFqAxAnET6mvtvOUMZE-65" value="" style="group;strokeWidth=3;" vertex="1" connectable="0" parent="iI6DlpHm0xtAlpqIoiOo-1">
                    <mxGeometry x="30" y="630" width="230" height="100" as="geometry"/>
                </mxCell>
                <mxCell id="DgFqAxAnET6mvtvOUMZE-66" value="" style="rounded=0;whiteSpace=wrap;html=1;strokeColor=#006633;strokeWidth=3;" vertex="1" parent="DgFqAxAnET6mvtvOUMZE-65">
                    <mxGeometry x="70" width="160" height="100" as="geometry"/>
                </mxCell>
                <mxCell id="DgFqAxAnET6mvtvOUMZE-67" value="&lt;font color=&quot;#006633&quot;&gt;PCB2&lt;/font&gt;" style="text;html=1;align=center;verticalAlign=middle;resizable=0;points=[];autosize=1;strokeColor=none;fillColor=none;fontSize=16;strokeWidth=3;" vertex="1" parent="DgFqAxAnET6mvtvOUMZE-65">
                    <mxGeometry y="40" width="60" height="20" as="geometry"/>
                </mxCell>
                <mxCell id="DgFqAxAnET6mvtvOUMZE-68" value="&lt;font style=&quot;font-size: 18px&quot; color=&quot;#006633&quot;&gt;VPN&lt;/font&gt;" style="rounded=0;whiteSpace=wrap;html=1;strokeColor=#006633;strokeWidth=3;" vertex="1" parent="DgFqAxAnET6mvtvOUMZE-65">
                    <mxGeometry x="70" y="20" width="160" height="30" as="geometry"/>
                </mxCell>
                <mxCell id="DgFqAxAnET6mvtvOUMZE-69" value="&lt;font style=&quot;font-size: 16px&quot;&gt;reference_count = 1&lt;/font&gt;" style="rounded=0;whiteSpace=wrap;html=1;strokeColor=#000099;strokeWidth=3;" vertex="1" parent="iI6DlpHm0xtAlpqIoiOo-1">
                    <mxGeometry x="400" y="530" width="160" height="40" as="geometry"/>
                </mxCell>
                <mxCell id="DgFqAxAnET6mvtvOUMZE-70" value="" style="endArrow=classic;html=1;fontSize=16;exitX=1;exitY=1;exitDx=0;exitDy=0;entryX=0;entryY=0.5;entryDx=0;entryDy=0;strokeWidth=3;" edge="1" source="DgFqAxAnET6mvtvOUMZE-63" target="DgFqAxAnET6mvtvOUMZE-69" parent="iI6DlpHm0xtAlpqIoiOo-1">
                    <mxGeometry width="50" height="50" relative="1" as="geometry">
                        <mxPoint x="270" y="400" as="sourcePoint"/>
                        <mxPoint x="410" y="400" as="targetPoint"/>
                    </mxGeometry>
                </mxCell>
                <mxCell id="DgFqAxAnET6mvtvOUMZE-71" value="" style="endArrow=classic;html=1;fontSize=16;exitX=1;exitY=0.5;exitDx=0;exitDy=0;entryX=0;entryY=0.5;entryDx=0;entryDy=0;strokeWidth=3;" edge="1" source="DgFqAxAnET6mvtvOUMZE-66" target="DgFqAxAnET6mvtvOUMZE-74" parent="iI6DlpHm0xtAlpqIoiOo-1">
                    <mxGeometry width="50" height="50" relative="1" as="geometry">
                        <mxPoint x="270" y="560" as="sourcePoint"/>
                        <mxPoint x="410" y="620" as="targetPoint"/>
                    </mxGeometry>
                </mxCell>
                <mxCell id="DgFqAxAnET6mvtvOUMZE-72" value="Frame1" style="text;html=1;align=center;verticalAlign=middle;resizable=0;points=[];autosize=1;strokeColor=none;fillColor=none;fontSize=16;strokeWidth=3;" vertex="1" parent="iI6DlpHm0xtAlpqIoiOo-1">
                    <mxGeometry x="560" y="540" width="70" height="20" as="geometry"/>
                </mxCell>
                <mxCell id="DgFqAxAnET6mvtvOUMZE-73" value="&lt;font style=&quot;font-size: 16px&quot;&gt;reference_count = 1&lt;/font&gt;" style="rounded=0;whiteSpace=wrap;html=1;strokeColor=#000099;strokeWidth=3;" vertex="1" parent="iI6DlpHm0xtAlpqIoiOo-1">
                    <mxGeometry x="400" y="530" width="160" height="40" as="geometry"/>
                </mxCell>
                <mxCell id="DgFqAxAnET6mvtvOUMZE-74" value="&lt;font style=&quot;font-size: 16px&quot;&gt;reference_count = 1&lt;/font&gt;" style="rounded=0;whiteSpace=wrap;html=1;strokeColor=#000099;strokeWidth=3;" vertex="1" parent="iI6DlpHm0xtAlpqIoiOo-1">
                    <mxGeometry x="400" y="660" width="160" height="40" as="geometry"/>
                </mxCell>
                <mxCell id="DgFqAxAnET6mvtvOUMZE-75" value="Frame2" style="text;html=1;align=center;verticalAlign=middle;resizable=0;points=[];autosize=1;strokeColor=none;fillColor=none;fontSize=16;strokeWidth=3;" vertex="1" parent="iI6DlpHm0xtAlpqIoiOo-1">
                    <mxGeometry x="560" y="670" width="70" height="20" as="geometry"/>
                </mxCell>
                <mxCell id="DgFqAxAnET6mvtvOUMZE-76" value="&lt;font style=&quot;font-size: 16px&quot;&gt;reference_count = 1&lt;/font&gt;" style="rounded=0;whiteSpace=wrap;html=1;strokeColor=#000099;strokeWidth=3;" vertex="1" parent="iI6DlpHm0xtAlpqIoiOo-1">
                    <mxGeometry x="400" y="530" width="160" height="40" as="geometry"/>
                </mxCell>
                <mxCell id="DgFqAxAnET6mvtvOUMZE-77" value="&lt;font style=&quot;font-size: 16px&quot;&gt;reference_count = 1&lt;/font&gt;" style="rounded=0;whiteSpace=wrap;html=1;strokeColor=#000099;strokeWidth=3;" vertex="1" parent="iI6DlpHm0xtAlpqIoiOo-1">
                    <mxGeometry x="400" y="660" width="160" height="40" as="geometry"/>
                </mxCell>
                <mxCell id="DgFqAxAnET6mvtvOUMZE-78" value="&lt;font style=&quot;font-size: 16px&quot;&gt;reference_count = 1&lt;/font&gt;" style="rounded=0;whiteSpace=wrap;html=1;strokeColor=default;strokeWidth=3;" vertex="1" parent="iI6DlpHm0xtAlpqIoiOo-1">
                    <mxGeometry x="400" y="530" width="160" height="40" as="geometry"/>
                </mxCell>
                <mxCell id="DgFqAxAnET6mvtvOUMZE-79" value="&lt;font style=&quot;font-size: 16px&quot;&gt;reference_count = 1&lt;/font&gt;" style="rounded=0;whiteSpace=wrap;html=1;strokeColor=default;strokeWidth=3;" vertex="1" parent="iI6DlpHm0xtAlpqIoiOo-1">
                    <mxGeometry x="400" y="660" width="160" height="40" as="geometry"/>
                </mxCell>
            </root>
        </mxGraphModel>
    </diagram>
    <diagram id="oh1pcEern-X16rOJq2qE" name="用户地址空间">
        <mxGraphModel dx="1374" dy="724" grid="1" gridSize="10" guides="1" tooltips="1" connect="1" arrows="1" fold="1" page="1" pageScale="1" pageWidth="827" pageHeight="1169" math="0" shadow="0">
            <root>
                <mxCell id="0"/>
                <mxCell id="1" parent="0"/>
                <mxCell id="2" value="" style="rounded=0;whiteSpace=wrap;html=1;fontFamily=Lucida Console;fontSize=16;fontStyle=1;strokeWidth=2;" parent="1" vertex="1">
                    <mxGeometry x="504" y="96" width="120" height="582" as="geometry"/>
                </mxCell>
                <mxCell id="3" value="Trampoline" style="rounded=0;whiteSpace=wrap;html=1;fontFamily=Lucida Console;fontSize=16;fontStyle=1;strokeWidth=2;" parent="1" vertex="1">
                    <mxGeometry x="504" y="96" width="120" height="60" as="geometry"/>
                </mxCell>
                <mxCell id="4" value="Trap Context" style="rounded=0;whiteSpace=wrap;html=1;fontFamily=Lucida Console;fontSize=16;fontStyle=1;strokeWidth=2;" parent="1" vertex="1">
                    <mxGeometry x="504" y="156" width="120" height="60" as="geometry"/>
                </mxCell>
                <mxCell id="5" value="tid=0" style="text;html=1;align=center;verticalAlign=middle;resizable=0;points=[];autosize=1;strokeColor=none;fillColor=none;fontSize=16;fontFamily=Lucida Console;fontStyle=1;strokeWidth=2;" parent="1" vertex="1">
                    <mxGeometry x="432" y="174" width="72" height="24" as="geometry"/>
                </mxCell>
                <mxCell id="6" value="2&lt;sup&gt;64&lt;/sup&gt;B" style="text;html=1;align=center;verticalAlign=middle;resizable=0;points=[];autosize=1;strokeColor=none;fillColor=none;fontSize=16;fontFamily=Lucida Console;fontStyle=1;strokeWidth=2;" parent="1" vertex="1">
                    <mxGeometry x="618" y="78" width="60" height="36" as="geometry"/>
                </mxCell>
                <mxCell id="7" value="Trap Context" style="rounded=0;whiteSpace=wrap;html=1;fontFamily=Lucida Console;fontSize=16;fontStyle=1;strokeWidth=2;" parent="1" vertex="1">
                    <mxGeometry x="504" y="216" width="120" height="60" as="geometry"/>
                </mxCell>
                <mxCell id="8" value="tid=1" style="text;html=1;align=center;verticalAlign=middle;resizable=0;points=[];autosize=1;strokeColor=none;fillColor=none;fontSize=16;fontFamily=Lucida Console;fontStyle=1;strokeWidth=2;" parent="1" vertex="1">
                    <mxGeometry x="432" y="234" width="72" height="24" as="geometry"/>
                </mxCell>
                <mxCell id="9" value=".&lt;br&gt;.&lt;br&gt;." style="text;html=1;align=center;verticalAlign=middle;resizable=0;points=[];autosize=1;strokeColor=none;fillColor=none;fontSize=16;fontFamily=Lucida Console;fontStyle=1;strokeWidth=2;" parent="1" vertex="1">
                    <mxGeometry x="552" y="276" width="24" height="60" as="geometry"/>
                </mxCell>
                <mxCell id="10" value="2&lt;sup&gt;64&lt;/sup&gt;B-256GB" style="text;html=1;align=center;verticalAlign=middle;resizable=0;points=[];autosize=1;strokeColor=none;fillColor=none;fontSize=16;fontFamily=Lucida Console;fontStyle=1;strokeWidth=2;" parent="1" vertex="1">
                    <mxGeometry x="618" y="660" width="120" height="36" as="geometry"/>
                </mxCell>
                <mxCell id="11" value="&lt;font style=&quot;font-size: 20px&quot;&gt;&lt;b&gt;HIGH 256GB&lt;/b&gt;&lt;/font&gt;" style="text;html=1;align=center;verticalAlign=middle;resizable=0;points=[];autosize=1;strokeColor=none;fillColor=none;" parent="1" vertex="1">
                    <mxGeometry x="499" y="56" width="130" height="20" as="geometry"/>
                </mxCell>
                <mxCell id="12" value="" style="rounded=0;whiteSpace=wrap;html=1;fontFamily=Lucida Console;fontSize=16;fontStyle=1;strokeWidth=2;" parent="1" vertex="1">
                    <mxGeometry x="96" y="96" width="120" height="588" as="geometry"/>
                </mxCell>
                <mxCell id="13" value=".text" style="rounded=0;whiteSpace=wrap;html=1;fontFamily=Lucida Console;fontSize=16;fontStyle=1;strokeWidth=2;" parent="1" vertex="1">
                    <mxGeometry x="96" y="648" width="120" height="36" as="geometry"/>
                </mxCell>
                <mxCell id="14" value=".rodata" style="rounded=0;whiteSpace=wrap;html=1;fontFamily=Lucida Console;fontSize=16;fontStyle=1;strokeWidth=2;" parent="1" vertex="1">
                    <mxGeometry x="96" y="612" width="120" height="36" as="geometry"/>
                </mxCell>
                <mxCell id="15" value=".data" style="rounded=0;whiteSpace=wrap;html=1;fontFamily=Lucida Console;fontSize=16;fontStyle=1;strokeWidth=2;" parent="1" vertex="1">
                    <mxGeometry x="96" y="576" width="120" height="36" as="geometry"/>
                </mxCell>
                <mxCell id="16" value=".bss" style="rounded=0;whiteSpace=wrap;html=1;fontFamily=Lucida Console;fontSize=16;fontStyle=1;strokeWidth=2;" parent="1" vertex="1">
                    <mxGeometry x="96" y="540" width="120" height="36" as="geometry"/>
                </mxCell>
                <mxCell id="17" value="heap" style="rounded=0;whiteSpace=wrap;html=1;fontFamily=Lucida Console;fontSize=16;fontStyle=1;strokeWidth=2;" parent="1" vertex="1">
                    <mxGeometry x="96" y="490" width="120" height="38" as="geometry"/>
                </mxCell>
                <mxCell id="18" value="" style="shape=flexArrow;endArrow=classic;html=1;rounded=0;fontFamily=Lucida Console;fontSize=16;exitX=0.5;exitY=0;exitDx=0;exitDy=0;fontStyle=1;strokeWidth=2;" parent="1" source="17" edge="1">
                    <mxGeometry width="50" height="50" relative="1" as="geometry">
                        <mxPoint x="144" y="422" as="sourcePoint"/>
                        <mxPoint x="156" y="440" as="targetPoint"/>
                    </mxGeometry>
                </mxCell>
                <mxCell id="19" value="mmap area" style="rounded=0;whiteSpace=wrap;html=1;fontFamily=Lucida Console;fontSize=16;fontStyle=1;strokeWidth=2;" parent="1" vertex="1">
                    <mxGeometry x="96" y="392" width="120" height="36" as="geometry"/>
                </mxCell>
                <mxCell id="20" value="" style="shape=flexArrow;endArrow=classic;html=1;rounded=0;fontFamily=Lucida Console;fontSize=16;exitX=0.5;exitY=0;exitDx=0;exitDy=0;fontStyle=1;strokeWidth=2;" parent="1" source="19" edge="1">
                    <mxGeometry width="50" height="50" relative="1" as="geometry">
                        <mxPoint x="155.57" y="380" as="sourcePoint"/>
                        <mxPoint x="156" y="342" as="targetPoint"/>
                    </mxGeometry>
                </mxCell>
                <mxCell id="21" value="stack" style="rounded=0;whiteSpace=wrap;html=1;fontFamily=Lucida Console;fontSize=16;fontStyle=1;strokeWidth=2;" parent="1" vertex="1">
                    <mxGeometry x="96" y="124" width="120" height="48" as="geometry"/>
                </mxCell>
                <mxCell id="22" value="0x8000_0000(2GB)" style="text;html=1;align=center;verticalAlign=middle;resizable=0;points=[];autosize=1;strokeColor=none;fillColor=none;fontSize=16;fontFamily=Lucida Console;fontStyle=1;strokeWidth=2;" parent="1" vertex="1">
                    <mxGeometry x="216" y="414" width="180" height="24" as="geometry"/>
                </mxCell>
                <mxCell id="23" value="0x1_0000_0000(4GB)" style="text;html=1;align=center;verticalAlign=middle;resizable=0;points=[];autosize=1;strokeColor=none;fillColor=none;fontSize=16;fontFamily=Lucida Console;fontStyle=1;strokeWidth=2;" parent="1" vertex="1">
                    <mxGeometry x="216" y="114" width="192" height="24" as="geometry"/>
                </mxCell>
                <mxCell id="24" value="program break" style="text;html=1;align=center;verticalAlign=middle;resizable=0;points=[];autosize=1;strokeColor=none;fillColor=none;fontSize=16;fontFamily=Lucida Console;fontStyle=1;strokeWidth=2;" parent="1" vertex="1">
                    <mxGeometry x="216" y="480" width="144" height="24" as="geometry"/>
                </mxCell>
                <mxCell id="26" value="tid=0" style="text;html=1;align=center;verticalAlign=middle;resizable=0;points=[];autosize=1;strokeColor=none;fillColor=none;fontSize=16;fontFamily=Lucida Console;fontStyle=1;strokeWidth=2;" parent="1" vertex="1">
                    <mxGeometry x="24" y="136" width="72" height="24" as="geometry"/>
                </mxCell>
                <mxCell id="27" value="Guard Page" style="rounded=0;whiteSpace=wrap;html=1;fontFamily=Lucida Console;fontSize=16;fontStyle=1;strokeWidth=2;" parent="1" vertex="1">
                    <mxGeometry x="96" y="172" width="120" height="36" as="geometry"/>
                </mxCell>
                <mxCell id="28" value=".&lt;br&gt;.&lt;br&gt;." style="text;html=1;align=center;verticalAlign=middle;resizable=0;points=[];autosize=1;strokeColor=none;fillColor=none;fontSize=16;fontFamily=Lucida Console;fontStyle=1;strokeWidth=2;" parent="1" vertex="1">
                    <mxGeometry x="144" y="256" width="24" height="60" as="geometry"/>
                </mxCell>
                <mxCell id="29" value="256GB" style="text;html=1;align=center;verticalAlign=middle;resizable=0;points=[];autosize=1;strokeColor=none;fillColor=none;fontSize=16;fontFamily=Lucida Console;fontStyle=1;strokeWidth=2;" parent="1" vertex="1">
                    <mxGeometry x="216" y="84" width="72" height="24" as="geometry"/>
                </mxCell>
                <mxCell id="30" value="0" style="text;html=1;align=center;verticalAlign=middle;resizable=0;points=[];autosize=1;strokeColor=none;fillColor=none;fontSize=16;fontFamily=Lucida Console;fontStyle=1;strokeWidth=2;" parent="1" vertex="1">
                    <mxGeometry x="216" y="672" width="24" height="24" as="geometry"/>
                </mxCell>
                <mxCell id="31" value="&lt;font style=&quot;font-size: 20px&quot;&gt;&lt;b&gt;LOW 256GB&lt;/b&gt;&lt;/font&gt;" style="text;html=1;align=center;verticalAlign=middle;resizable=0;points=[];autosize=1;strokeColor=none;fillColor=none;" parent="1" vertex="1">
                    <mxGeometry x="91" y="56" width="130" height="20" as="geometry"/>
                </mxCell>
                <mxCell id="32" value="stack" style="rounded=0;whiteSpace=wrap;html=1;fontFamily=Lucida Console;fontSize=16;fontStyle=1;strokeWidth=2;" vertex="1" parent="1">
                    <mxGeometry x="96" y="208" width="120" height="48" as="geometry"/>
                </mxCell>
                <mxCell id="33" value="tid=1" style="text;html=1;align=center;verticalAlign=middle;resizable=0;points=[];autosize=1;strokeColor=none;fillColor=none;fontSize=16;fontFamily=Lucida Console;fontStyle=1;strokeWidth=2;" vertex="1" parent="1">
                    <mxGeometry x="25" y="222" width="70" height="20" as="geometry"/>
                </mxCell>
            </root>
        </mxGraphModel>
    </diagram>
    <diagram id="M2olwpSrb_hc5nNm5Ss1" name="内核地址空间">
        <mxGraphModel dx="1168" dy="615" grid="1" gridSize="10" guides="1" tooltips="1" connect="1" arrows="1" fold="1" page="1" pageScale="1" pageWidth="827" pageHeight="1169" math="0" shadow="0">
            <root>
                <mxCell id="23ogJ3nBk2eFPAOjX0tj-0"/>
                <mxCell id="23ogJ3nBk2eFPAOjX0tj-1" parent="23ogJ3nBk2eFPAOjX0tj-0"/>
                <mxCell id="23ogJ3nBk2eFPAOjX0tj-2" value="" style="rounded=0;whiteSpace=wrap;html=1;fontFamily=Lucida Console;fontSize=16;fontStyle=1;strokeWidth=2;" parent="23ogJ3nBk2eFPAOjX0tj-1" vertex="1">
                    <mxGeometry x="523" y="82" width="120" height="582" as="geometry"/>
                </mxCell>
                <mxCell id="23ogJ3nBk2eFPAOjX0tj-3" value="" style="rounded=0;whiteSpace=wrap;html=1;fontFamily=Lucida Console;fontSize=16;fontStyle=1;strokeWidth=2;" parent="23ogJ3nBk2eFPAOjX0tj-1" vertex="1">
                    <mxGeometry x="80" y="82" width="120" height="588" as="geometry"/>
                </mxCell>
                <mxCell id="23ogJ3nBk2eFPAOjX0tj-4" value=".text" style="rounded=0;whiteSpace=wrap;html=1;fontFamily=Lucida Console;fontSize=16;fontStyle=1;strokeWidth=2;" parent="23ogJ3nBk2eFPAOjX0tj-1" vertex="1">
                    <mxGeometry x="80" y="530" width="120" height="48" as="geometry"/>
                </mxCell>
                <mxCell id="23ogJ3nBk2eFPAOjX0tj-5" value=".rodata" style="rounded=0;whiteSpace=wrap;html=1;fontFamily=Lucida Console;fontSize=16;fontStyle=1;strokeWidth=2;" parent="23ogJ3nBk2eFPAOjX0tj-1" vertex="1">
                    <mxGeometry x="80" y="480" width="120" height="50" as="geometry"/>
                </mxCell>
                <mxCell id="23ogJ3nBk2eFPAOjX0tj-6" value=".data" style="rounded=0;whiteSpace=wrap;html=1;fontFamily=Lucida Console;fontSize=16;fontStyle=1;strokeWidth=2;" parent="23ogJ3nBk2eFPAOjX0tj-1" vertex="1">
                    <mxGeometry x="80" y="430" width="120" height="50" as="geometry"/>
                </mxCell>
                <mxCell id="23ogJ3nBk2eFPAOjX0tj-7" value=".bss" style="rounded=0;whiteSpace=wrap;html=1;fontFamily=Lucida Console;fontSize=16;fontStyle=1;strokeWidth=2;" parent="23ogJ3nBk2eFPAOjX0tj-1" vertex="1">
                    <mxGeometry x="80" y="380" width="120" height="50" as="geometry"/>
                </mxCell>
                <mxCell id="23ogJ3nBk2eFPAOjX0tj-8" value="Available&lt;br&gt;Physical&lt;br&gt;Frames" style="rounded=0;whiteSpace=wrap;html=1;fontFamily=Lucida Console;fontSize=16;fontStyle=1;strokeWidth=2;" parent="23ogJ3nBk2eFPAOjX0tj-1" vertex="1">
                    <mxGeometry x="80" y="280" width="120" height="108" as="geometry"/>
                </mxCell>
                <mxCell id="23ogJ3nBk2eFPAOjX0tj-9" value="0" style="text;html=1;align=center;verticalAlign=middle;resizable=0;points=[];autosize=1;strokeColor=none;fillColor=none;fontSize=16;fontFamily=Lucida Console;fontStyle=1;strokeWidth=2;" parent="23ogJ3nBk2eFPAOjX0tj-1" vertex="1">
                    <mxGeometry x="200" y="658" width="24" height="24" as="geometry"/>
                </mxCell>
                <mxCell id="23ogJ3nBk2eFPAOjX0tj-10" value="Trampoline" style="rounded=0;whiteSpace=wrap;html=1;fontFamily=Lucida Console;fontSize=16;fontStyle=1;strokeWidth=2;" parent="23ogJ3nBk2eFPAOjX0tj-1" vertex="1">
                    <mxGeometry x="523" y="82" width="120" height="48" as="geometry"/>
                </mxCell>
                <mxCell id="23ogJ3nBk2eFPAOjX0tj-11" value="Kernel Stack" style="rounded=0;whiteSpace=wrap;html=1;fontFamily=Lucida Console;fontSize=16;fontStyle=1;strokeWidth=2;" parent="23ogJ3nBk2eFPAOjX0tj-1" vertex="1">
                    <mxGeometry x="523" y="130" width="120" height="88" as="geometry"/>
                </mxCell>
                <mxCell id="23ogJ3nBk2eFPAOjX0tj-12" value="kid=0" style="text;html=1;align=center;verticalAlign=middle;resizable=0;points=[];autosize=1;strokeColor=none;fillColor=none;fontSize=16;fontFamily=Lucida Console;fontStyle=1;strokeWidth=2;" parent="23ogJ3nBk2eFPAOjX0tj-1" vertex="1">
                    <mxGeometry x="451" y="164" width="70" height="20" as="geometry"/>
                </mxCell>
                <mxCell id="23ogJ3nBk2eFPAOjX0tj-13" value="2&lt;sup&gt;64&lt;/sup&gt;B" style="text;html=1;align=center;verticalAlign=middle;resizable=0;points=[];autosize=1;strokeColor=none;fillColor=none;fontSize=16;fontFamily=Lucida Console;fontStyle=1;strokeWidth=2;" parent="23ogJ3nBk2eFPAOjX0tj-1" vertex="1">
                    <mxGeometry x="637" y="64" width="60" height="36" as="geometry"/>
                </mxCell>
                <mxCell id="23ogJ3nBk2eFPAOjX0tj-14" value="Guard Page" style="rounded=0;whiteSpace=wrap;html=1;fontFamily=Lucida Console;fontSize=16;fontStyle=1;strokeWidth=2;" parent="23ogJ3nBk2eFPAOjX0tj-1" vertex="1">
                    <mxGeometry x="523" y="218" width="120" height="50" as="geometry"/>
                </mxCell>
                <mxCell id="23ogJ3nBk2eFPAOjX0tj-15" value="kid=1" style="text;html=1;align=center;verticalAlign=middle;resizable=0;points=[];autosize=1;strokeColor=none;fillColor=none;fontSize=16;fontFamily=Lucida Console;fontStyle=1;strokeWidth=2;" parent="23ogJ3nBk2eFPAOjX0tj-1" vertex="1">
                    <mxGeometry x="450" y="302" width="70" height="20" as="geometry"/>
                </mxCell>
                <mxCell id="23ogJ3nBk2eFPAOjX0tj-16" value="2&lt;sup&gt;64&lt;/sup&gt;B-256GB" style="text;html=1;align=center;verticalAlign=middle;resizable=0;points=[];autosize=1;strokeColor=none;fillColor=none;fontSize=16;fontFamily=Lucida Console;fontStyle=1;strokeWidth=2;" parent="23ogJ3nBk2eFPAOjX0tj-1" vertex="1">
                    <mxGeometry x="637" y="646" width="120" height="36" as="geometry"/>
                </mxCell>
                <mxCell id="23ogJ3nBk2eFPAOjX0tj-17" value="&lt;font style=&quot;font-size: 20px&quot;&gt;&lt;b&gt;LOW 256GB&lt;/b&gt;&lt;/font&gt;" style="text;html=1;align=center;verticalAlign=middle;resizable=0;points=[];autosize=1;strokeColor=none;fillColor=none;" parent="23ogJ3nBk2eFPAOjX0tj-1" vertex="1">
                    <mxGeometry x="75" y="42" width="130" height="20" as="geometry"/>
                </mxCell>
                <mxCell id="23ogJ3nBk2eFPAOjX0tj-18" value="&lt;font style=&quot;font-size: 20px&quot;&gt;&lt;b&gt;HIGH 256GB&lt;/b&gt;&lt;/font&gt;" style="text;html=1;align=center;verticalAlign=middle;resizable=0;points=[];autosize=1;strokeColor=none;fillColor=none;" parent="23ogJ3nBk2eFPAOjX0tj-1" vertex="1">
                    <mxGeometry x="518" y="42" width="130" height="20" as="geometry"/>
                </mxCell>
                <mxCell id="23ogJ3nBk2eFPAOjX0tj-19" value="Kernel Stack" style="rounded=0;whiteSpace=wrap;html=1;fontFamily=Lucida Console;fontSize=16;fontStyle=1;strokeWidth=2;" parent="23ogJ3nBk2eFPAOjX0tj-1" vertex="1">
                    <mxGeometry x="523" y="268" width="120" height="88" as="geometry"/>
                </mxCell>
                <mxCell id="23ogJ3nBk2eFPAOjX0tj-20" value="Guard Page" style="rounded=0;whiteSpace=wrap;html=1;fontFamily=Lucida Console;fontSize=16;fontStyle=1;strokeWidth=2;" parent="23ogJ3nBk2eFPAOjX0tj-1" vertex="1">
                    <mxGeometry x="523" y="356" width="120" height="50" as="geometry"/>
                </mxCell>
                <mxCell id="23ogJ3nBk2eFPAOjX0tj-21" value=".&lt;br&gt;.&lt;br&gt;." style="text;html=1;align=center;verticalAlign=middle;resizable=0;points=[];autosize=1;strokeColor=none;fillColor=none;fontSize=16;fontFamily=Lucida Console;fontStyle=1;strokeWidth=2;" parent="23ogJ3nBk2eFPAOjX0tj-1" vertex="1">
                    <mxGeometry x="571" y="406" width="24" height="60" as="geometry"/>
                </mxCell>
                <mxCell id="23ogJ3nBk2eFPAOjX0tj-22" value="256GB" style="text;html=1;align=center;verticalAlign=middle;resizable=0;points=[];autosize=1;strokeColor=none;fillColor=none;fontSize=16;fontFamily=Lucida Console;fontStyle=1;strokeWidth=2;" parent="23ogJ3nBk2eFPAOjX0tj-1" vertex="1">
                    <mxGeometry x="200" y="70" width="72" height="24" as="geometry"/>
                </mxCell>
                <mxCell id="23ogJ3nBk2eFPAOjX0tj-23" value="BASE_ADDRESS" style="text;html=1;align=center;verticalAlign=middle;resizable=0;points=[];autosize=1;strokeColor=none;fillColor=none;fontSize=16;fontFamily=Lucida Console;fontStyle=1;strokeWidth=2;" parent="23ogJ3nBk2eFPAOjX0tj-1" vertex="1">
                    <mxGeometry x="200" y="570" width="140" height="20" as="geometry"/>
                </mxCell>
                <mxCell id="23ogJ3nBk2eFPAOjX0tj-24" value="MEMORY_END" style="text;html=1;align=center;verticalAlign=middle;resizable=0;points=[];autosize=1;strokeColor=none;fillColor=none;fontSize=16;fontFamily=Lucida Console;fontStyle=1;strokeWidth=2;" parent="23ogJ3nBk2eFPAOjX0tj-1" vertex="1">
                    <mxGeometry x="200" y="270" width="120" height="20" as="geometry"/>
                </mxCell>
            </root>
        </mxGraphModel>
    </diagram>
    <diagram id="oQ1Yc03m7R9SyLmIUXa4" name="进程状态">
        <mxGraphModel dx="775" dy="513" grid="1" gridSize="10" guides="1" tooltips="1" connect="1" arrows="1" fold="1" page="1" pageScale="1" pageWidth="827" pageHeight="1169" math="0" shadow="0">
            <root>
                <mxCell id="E35w9EKpAloJ7BxYdKfZ-0"/>
                <mxCell id="E35w9EKpAloJ7BxYdKfZ-1" parent="E35w9EKpAloJ7BxYdKfZ-0"/>
                <mxCell id="E35w9EKpAloJ7BxYdKfZ-2" value="Uninitialized" style="ellipse;whiteSpace=wrap;html=1;fontSize=17;strokeWidth=2;fontStyle=1" vertex="1" parent="E35w9EKpAloJ7BxYdKfZ-1">
                    <mxGeometry x="130" y="40" width="120" height="80" as="geometry"/>
                </mxCell>
                <mxCell id="E35w9EKpAloJ7BxYdKfZ-3" value="Ready" style="ellipse;whiteSpace=wrap;html=1;fontSize=17;strokeWidth=2;fontStyle=1" vertex="1" parent="E35w9EKpAloJ7BxYdKfZ-1">
                    <mxGeometry x="130" y="250" width="120" height="80" as="geometry"/>
                </mxCell>
                <mxCell id="E35w9EKpAloJ7BxYdKfZ-4" value="Running" style="ellipse;whiteSpace=wrap;html=1;fontSize=17;strokeWidth=2;fontStyle=1" vertex="1" parent="E35w9EKpAloJ7BxYdKfZ-1">
                    <mxGeometry x="414" y="250" width="120" height="80" as="geometry"/>
                </mxCell>
                <mxCell id="E35w9EKpAloJ7BxYdKfZ-5" value="Exited" style="ellipse;whiteSpace=wrap;html=1;fontSize=17;strokeWidth=2;fontStyle=1" vertex="1" parent="E35w9EKpAloJ7BxYdKfZ-1">
                    <mxGeometry x="414" y="450" width="120" height="80" as="geometry"/>
                </mxCell>
                <mxCell id="E35w9EKpAloJ7BxYdKfZ-6" value="" style="endArrow=classic;html=1;rounded=0;fontSize=17;exitX=0.5;exitY=1;exitDx=0;exitDy=0;entryX=0.5;entryY=0;entryDx=0;entryDy=0;strokeWidth=2;fontStyle=1" edge="1" parent="E35w9EKpAloJ7BxYdKfZ-1" source="E35w9EKpAloJ7BxYdKfZ-2" target="E35w9EKpAloJ7BxYdKfZ-3">
                    <mxGeometry width="50" height="50" relative="1" as="geometry">
                        <mxPoint x="110" y="220" as="sourcePoint"/>
                        <mxPoint x="160" y="170" as="targetPoint"/>
                    </mxGeometry>
                </mxCell>
                <mxCell id="E35w9EKpAloJ7BxYdKfZ-7" value="init" style="edgeLabel;html=1;align=center;verticalAlign=middle;resizable=0;points=[];fontSize=17;fontStyle=1" vertex="1" connectable="0" parent="E35w9EKpAloJ7BxYdKfZ-6">
                    <mxGeometry x="-0.2769" y="-1" relative="1" as="geometry">
                        <mxPoint x="21" y="13" as="offset"/>
                    </mxGeometry>
                </mxCell>
                <mxCell id="E35w9EKpAloJ7BxYdKfZ-8" value="" style="endArrow=classic;html=1;rounded=0;fontSize=17;exitX=0.5;exitY=1;exitDx=0;exitDy=0;entryX=0.5;entryY=0;entryDx=0;entryDy=0;strokeWidth=2;fontStyle=1" edge="1" parent="E35w9EKpAloJ7BxYdKfZ-1" source="E35w9EKpAloJ7BxYdKfZ-4" target="E35w9EKpAloJ7BxYdKfZ-5">
                    <mxGeometry width="50" height="50" relative="1" as="geometry">
                        <mxPoint x="441.57359312880726" y="328.2842712474617" as="sourcePoint"/>
                        <mxPoint x="266.42640687119274" y="328.2842712474619" as="targetPoint"/>
                    </mxGeometry>
                </mxCell>
                <mxCell id="E35w9EKpAloJ7BxYdKfZ-9" value="exit" style="edgeLabel;html=1;align=center;verticalAlign=middle;resizable=0;points=[];fontSize=17;fontStyle=1" vertex="1" connectable="0" parent="E35w9EKpAloJ7BxYdKfZ-8">
                    <mxGeometry x="-0.3" y="-5" relative="1" as="geometry">
                        <mxPoint x="31" y="8" as="offset"/>
                    </mxGeometry>
                </mxCell>
                <mxCell id="E35w9EKpAloJ7BxYdKfZ-10" value="" style="curved=1;endArrow=classic;html=1;rounded=0;fontSize=17;strokeWidth=2;exitX=1;exitY=0;exitDx=0;exitDy=0;entryX=0;entryY=0;entryDx=0;entryDy=0;fontStyle=1" edge="1" parent="E35w9EKpAloJ7BxYdKfZ-1" source="E35w9EKpAloJ7BxYdKfZ-3" target="E35w9EKpAloJ7BxYdKfZ-4">
                    <mxGeometry width="50" height="50" relative="1" as="geometry">
                        <mxPoint x="150" y="520" as="sourcePoint"/>
                        <mxPoint x="200" y="470" as="targetPoint"/>
                        <Array as="points">
                            <mxPoint x="320" y="220"/>
                        </Array>
                    </mxGeometry>
                </mxCell>
                <mxCell id="E35w9EKpAloJ7BxYdKfZ-11" value="run" style="edgeLabel;html=1;align=center;verticalAlign=middle;resizable=0;points=[];fontSize=17;fontStyle=1" vertex="1" connectable="0" parent="E35w9EKpAloJ7BxYdKfZ-10">
                    <mxGeometry x="-0.3265" y="-23" relative="1" as="geometry">
                        <mxPoint x="19" y="-27" as="offset"/>
                    </mxGeometry>
                </mxCell>
                <mxCell id="E35w9EKpAloJ7BxYdKfZ-12" value="yield" style="curved=1;endArrow=classic;html=1;rounded=0;fontSize=17;strokeWidth=2;entryX=1;entryY=1;entryDx=0;entryDy=0;fontStyle=1;exitX=0.11;exitY=0.85;exitDx=0;exitDy=0;exitPerimeter=0;" edge="1" parent="E35w9EKpAloJ7BxYdKfZ-1" source="E35w9EKpAloJ7BxYdKfZ-4" target="E35w9EKpAloJ7BxYdKfZ-3">
                    <mxGeometry x="-0.0623" y="-27" width="50" height="50" relative="1" as="geometry">
                        <mxPoint x="280" y="430" as="sourcePoint"/>
                        <mxPoint x="417.57359312880726" y="271.7157287525383" as="targetPoint"/>
                        <Array as="points">
                            <mxPoint x="320" y="340"/>
                        </Array>
                        <mxPoint as="offset"/>
                    </mxGeometry>
                </mxCell>
                <mxCell id="b9fjq-GmCMQqLYfpzJNF-0" value="Block" style="ellipse;whiteSpace=wrap;html=1;fontSize=17;strokeWidth=2;fontStyle=1" vertex="1" parent="E35w9EKpAloJ7BxYdKfZ-1">
                    <mxGeometry x="130" y="450" width="120" height="80" as="geometry"/>
                </mxCell>
                <mxCell id="b9fjq-GmCMQqLYfpzJNF-1" value="unblock" style="curved=1;endArrow=classic;html=1;rounded=0;fontSize=17;strokeWidth=2;entryX=0.5;entryY=1;entryDx=0;entryDy=0;fontStyle=1;exitX=0.5;exitY=0;exitDx=0;exitDy=0;" edge="1" parent="E35w9EKpAloJ7BxYdKfZ-1" source="b9fjq-GmCMQqLYfpzJNF-0" target="E35w9EKpAloJ7BxYdKfZ-3">
                    <mxGeometry x="-0.1667" y="-40" width="50" height="50" relative="1" as="geometry">
                        <mxPoint x="437.1999999999998" y="328.0000000000001" as="sourcePoint"/>
                        <mxPoint x="242.42640687119274" y="328.284271247462" as="targetPoint"/>
                        <Array as="points"/>
                        <mxPoint as="offset"/>
                    </mxGeometry>
                </mxCell>
                <mxCell id="b9fjq-GmCMQqLYfpzJNF-2" value="wait" style="curved=1;endArrow=classic;html=1;rounded=0;fontSize=17;strokeWidth=2;entryX=1;entryY=0.5;entryDx=0;entryDy=0;fontStyle=1;exitX=0.231;exitY=0.971;exitDx=0;exitDy=0;exitPerimeter=0;" edge="1" parent="E35w9EKpAloJ7BxYdKfZ-1" target="b9fjq-GmCMQqLYfpzJNF-0">
                    <mxGeometry x="0.2663" y="-38" width="50" height="50" relative="1" as="geometry">
                        <mxPoint x="451.7199999999998" y="337.68000000000006" as="sourcePoint"/>
                        <mxPoint x="257" y="485.03999999999996" as="targetPoint"/>
                        <Array as="points">
                            <mxPoint x="400" y="450"/>
                        </Array>
                        <mxPoint as="offset"/>
                    </mxGeometry>
                </mxCell>
            </root>
        </mxGraphModel>
    </diagram>
</mxfile>